<mxfile host="65bd71144e">
    <diagram id="BWaip8sx9dR8IWvyHyfX" name="Page-1">
        <mxGraphModel dx="456" dy="253" grid="1" gridSize="10" guides="1" tooltips="1" connect="1" arrows="1" fold="1" page="1" pageScale="1" pageWidth="850" pageHeight="1100" math="0" shadow="0">
            <root>
                <mxCell id="0"/>
                <mxCell id="1" parent="0"/>
                <mxCell id="2" value="etudiants" style="ellipse;whiteSpace=wrap;html=1;" vertex="1" parent="1">
                    <mxGeometry x="90" y="60" width="210" height="200" as="geometry"/>
                </mxCell>
                <mxCell id="3" value="alain" style="ellipse;whiteSpace=wrap;html=1;" vertex="1" parent="1">
                    <mxGeometry x="110" y="110" width="50" height="40" as="geometry"/>
                </mxCell>
                <mxCell id="4" value="celine" style="ellipse;whiteSpace=wrap;html=1;" vertex="1" parent="1">
                    <mxGeometry x="240" y="110" width="50" height="40" as="geometry"/>
                </mxCell>
                <mxCell id="5" value="zorro" style="ellipse;whiteSpace=wrap;html=1;" vertex="1" parent="1">
                    <mxGeometry x="240" y="180" width="50" height="40" as="geometry"/>
                </mxCell>
                <mxCell id="6" value="compÃ©tences php" style="ellipse;whiteSpace=wrap;html=1;aspect=fixed;fillColor=none;" vertex="1" parent="1">
                    <mxGeometry x="229" y="60" width="200" height="200" as="geometry"/>
                </mxCell>
                <mxCell id="7" value="FROM etudiants&lt;br&gt;JOIN competences&lt;br&gt;ON etudiant.id = competence.id" style="text;html=1;strokeColor=none;fillColor=none;align=center;verticalAlign=middle;whiteSpace=wrap;rounded=0;" vertex="1" parent="1">
                    <mxGeometry x="430" y="80" width="220" height="30" as="geometry"/>
                </mxCell>
                <mxCell id="8" value="FROM etudiants&lt;br&gt;LEFT JOIN competences&lt;br&gt;ON etudiant.id = competence.id" style="text;html=1;strokeColor=none;fillColor=none;align=center;verticalAlign=middle;whiteSpace=wrap;rounded=0;" vertex="1" parent="1">
                    <mxGeometry x="430" y="180" width="220" height="30" as="geometry"/>
                </mxCell>
            </root>
        </mxGraphModel>
    </diagram>
</mxfile>